<svg width="35" height="32" viewBox="0 0 35 32" fill="none" xmlns="http://www.w3.org/2000/svg">
<path d="M13.31 0.160015C8.82 0.220015 4.62 2.59001 2.41 6.53001C0.39 10.14 0.359999 14.63 1.92 18.41C4.35 24.31 10.31 27.76 16.13 29.64C17.66 30.13 19.24 30.57 20.83 30.8C21.29 30.87 21.75 30.62 21.75 30.1V24.42L21.02 25.15C24.54 25.15 27.76 24.42 30.48 22.04C33.38 19.5 34.98 15.64 34.7 11.79C34.42 7.94001 32.38 4.42001 29.18 2.27001C26.67 0.570014 23.88 0.160015 20.93 0.160015H13.31C12.37 0.160015 12.37 1.62001 13.31 1.62001H18.88C21.05 1.62001 23.29 1.45001 25.39 2.07001C32.86 4.28001 35.74 13.78 30.7 19.75C28.19 22.73 24.78 23.7 21.02 23.7C20.63 23.7 20.29 24.03 20.29 24.43V30.11L21.21 29.41C11.93 28.03 -0.320001 20.96 2.63 9.83001C3.92 4.99001 8.35 1.69001 13.31 1.61001C14.25 1.60001 14.25 0.140015 13.31 0.150015V0.160015Z" fill="white"/>
<path d="M22.41 6.86999C24.03 8.12999 24.83 10.3 24.06 12.28C23.29 14.26 21.17 15.19 19.25 15.62C18.92 15.69 18.74 16.01 18.72 16.32C18.68 16.93 18.08 17.38 17.48 17.13C17.02 16.94 16.94 16.52 16.93 16.08C16.92 15.4 16.73 14.31 17.56 14.05C18.17 13.86 18.87 13.89 19.5 13.71C20.19 13.51 20.88 13.22 21.46 12.79C22.46 12.03 22.81 10.82 22.37 9.64C21.39 6.99 17.31 7.05999 15.26 8.19999C14.73 8.48999 14.23 8.90999 13.95 9.45999C13.69 9.96999 13.61 10.62 12.88 10.6C11.07 10.55 12.61 8.09999 13.18 7.52999C15.55 5.17999 19.92 5.06999 22.56 6.97999C23.32 7.52999 24.05 6.26999 23.29 5.71999C20.46 3.66999 16.1 3.71999 13.21 5.63999C11.94 6.47999 10.7 7.89999 10.56 9.48999C10.43 10.98 11.76 12.24 13.25 12.02C13.91 11.92 14.52 11.54 14.88 10.98C15.06 10.69 15.11 10.34 15.28 10.06C15.55 9.63 16.08 9.37999 16.54 9.22C17.75 8.79 20.39 8.59999 21 10.13C21.71 11.93 18.92 12.45 17.72 12.58C16.37 12.73 15.49 13.71 15.47 15.06C15.45 16.27 15.4 17.6 16.58 18.32C18.18 19.3 20.05 18.11 20.17 16.34L19.64 17.04C22.1 16.49 24.54 15.16 25.47 12.68C26.4 10.2 25.44 7.40999 23.44 5.84999C22.71 5.27999 21.67 6.29999 22.41 6.87999V6.86999Z" fill="white"/>
<path d="M16.87 20.36C16.87 20.36 16.87 20.27 16.87 20.22C16.87 20.1 16.87 20.27 16.87 20.28C16.9 20.24 16.9 20.12 16.92 20.07C16.93 20.04 16.96 19.98 16.96 19.95C16.96 19.97 16.88 20.11 16.94 20.01C16.98 19.94 17.02 19.86 17.07 19.79C17.15 19.67 16.98 19.88 17.05 19.82C17.08 19.8 17.1 19.77 17.12 19.74C17.14 19.72 17.16 19.7 17.18 19.68C17.24 19.62 17.3 19.63 17.16 19.68C17.22 19.65 17.28 19.6 17.34 19.56C17.36 19.55 17.39 19.53 17.42 19.52C17.26 19.57 17.54 19.45 17.42 19.52C17.49 19.5 17.56 19.48 17.63 19.46C17.73 19.44 17.7 19.49 17.59 19.46C17.62 19.46 17.67 19.46 17.7 19.46C17.78 19.46 17.85 19.46 17.93 19.46C18.03 19.46 17.74 19.42 17.89 19.46C17.93 19.46 17.98 19.48 18.02 19.49C18.06 19.5 18.1 19.52 18.14 19.53C18.22 19.56 18.14 19.57 18.09 19.51C18.13 19.55 18.23 19.58 18.28 19.61C18.31 19.63 18.34 19.65 18.37 19.67C18.45 19.72 18.24 19.55 18.34 19.65C18.38 19.69 18.47 19.81 18.52 19.83C18.45 19.8 18.44 19.71 18.48 19.78C18.5 19.82 18.53 19.85 18.55 19.89C18.56 19.91 18.58 19.94 18.59 19.96L18.61 20C18.64 20.07 18.64 20.05 18.59 19.94C18.59 20 18.64 20.08 18.66 20.15C18.66 20.18 18.67 20.21 18.68 20.24C18.67 20.06 18.71 20.38 18.68 20.24C18.68 20.31 18.68 20.38 18.68 20.44C18.68 20.51 18.63 20.61 18.68 20.42C18.68 20.45 18.67 20.48 18.66 20.51C18.64 20.58 18.62 20.65 18.6 20.72C18.55 20.87 18.68 20.57 18.6 20.7C18.58 20.74 18.56 20.78 18.54 20.81C18.52 20.84 18.5 20.87 18.48 20.9C18.42 20.99 18.42 20.9 18.5 20.87C18.46 20.89 18.39 20.99 18.35 21.02C18.33 21.04 18.22 21.11 18.33 21.05C18.44 20.98 18.32 21.05 18.3 21.07C18.24 21.11 18.11 21.15 18.08 21.2C18.08 21.19 18.25 21.14 18.13 21.18C18.09 21.19 18.05 21.21 18.01 21.22C17.98 21.22 17.95 21.23 17.93 21.24C17.91 21.24 17.77 21.26 17.9 21.24C18.03 21.22 17.88 21.24 17.86 21.24C17.82 21.24 17.78 21.24 17.75 21.24C17.72 21.24 17.67 21.24 17.64 21.24C17.49 21.24 17.79 21.28 17.66 21.24C17.57 21.22 17.49 21.2 17.41 21.17C17.27 21.13 17.52 21.24 17.45 21.18C17.41 21.15 17.36 21.13 17.32 21.11C17.3 21.1 17.27 21.08 17.25 21.06C17.23 21.04 17.2 21.03 17.18 21.01C17.27 21.08 17.29 21.09 17.23 21.04C17.18 20.99 17.13 20.94 17.08 20.89C16.97 20.78 17.17 21.03 17.08 20.9C17.06 20.86 17.03 20.83 17.01 20.79C16.99 20.75 16.97 20.72 16.95 20.68C16.88 20.56 17 20.84 16.95 20.7C16.92 20.62 16.9 20.53 16.88 20.45C16.86 20.37 16.91 20.41 16.88 20.51C16.89 20.46 16.88 20.38 16.88 20.33C16.88 19.95 16.55 19.58 16.15 19.6C15.75 19.62 15.42 19.92 15.42 20.33C15.43 21.34 16.06 22.19 17 22.55C17.87 22.88 18.96 22.59 19.55 21.87C20.18 21.1 20.32 20.01 19.8 19.13C19.28 18.25 18.28 17.85 17.29 18.03C16.2 18.23 15.44 19.25 15.42 20.33C15.42 20.71 15.76 21.08 16.15 21.06C16.54 21.04 16.87 20.74 16.88 20.33L16.87 20.36Z" fill="white"/>
</svg>
