<svg width="23" height="19" viewBox="0 0 23 19" fill="none" xmlns="http://www.w3.org/2000/svg">
<g clip-path="url(#clip0_171_99)">
<path d="M19.9706 14.4994V16.1797C19.9706 16.916 20.0626 17.7413 19.1754 18.1213C18.5117 18.4063 17.4143 18.2341 16.7177 18.2341H7.20229C6.40058 18.2341 5.57258 18.2875 4.77086 18.2341C2.92429 18.1094 3.39086 15.9066 3.39743 14.7428C3.41057 12.5935 5.06657 10.8181 7.52429 10.7706C8.556 10.7528 9.59429 10.7706 10.626 10.7706C12.2557 10.7706 13.8854 10.7706 15.5217 10.7706C17.9269 10.7766 19.9049 12.2431 19.9706 14.4994C19.9903 15.0694 20.976 15.0753 20.9563 14.4994C20.884 12.166 19.0111 10.1888 16.4089 9.9097C15.0749 9.7672 13.6751 9.87408 12.3346 9.87408C10.7771 9.87408 9.22629 9.8622 7.66886 9.87408C5.44115 9.89189 3.45 11.0556 2.69429 12.9853C2.392 13.7453 2.41172 14.5291 2.41172 15.3247C2.41172 15.9719 2.33286 16.6725 2.44457 17.3138C2.69429 18.7863 4.12686 19.1188 5.51343 19.1188H15.9094C16.9871 19.1188 18.4591 19.3385 19.4909 18.9585C21.4294 18.246 20.9629 16.0075 20.9629 14.4935C20.9629 13.9175 19.9771 13.9175 19.9771 14.4935L19.9706 14.4994Z" fill="white"/>
<path d="M7.452 4.80345C7.47829 3.20032 8.58886 1.71001 10.2974 1.19345C12.006 0.676887 13.8394 1.15782 14.9631 2.39282C16.0869 3.62782 16.2117 5.4922 15.2457 6.86376C14.2797 8.23532 12.4857 8.88251 10.7837 8.54407C8.85829 8.15814 7.452 6.59064 7.452 4.80939C7.452 4.23345 6.46629 4.23345 6.46629 4.80939C6.46629 6.74501 7.81343 8.49657 9.798 9.20314C11.7826 9.9097 14.26 9.36939 15.6597 7.85532C17.0594 6.34126 17.296 4.1622 16.1986 2.44626C15.1011 0.730325 12.8669 -0.172175 10.7114 0.178137C8.25372 0.57595 6.49915 2.58282 6.46629 4.80345C6.45972 5.37939 7.44543 5.37939 7.452 4.80345Z" fill="white"/>
</g>
<defs>
<clipPath id="clip0_171_99">
<rect width="23" height="19" fill="white"/>
</clipPath>
</defs>
</svg>
