<?xml version="1.0" encoding="UTF-8"?>
<svg id="Layer_1" data-name="Layer 1" xmlns="http://www.w3.org/2000/svg" viewBox="0 0 62.56 59.4">
  <defs>
    <style>
      .cls-1 {
        stroke: red;
      }

      .cls-1, .cls-2 {
        fill: none;
        stroke-miterlimit: 10;
      }

      .cls-2 {
        stroke: #0fa448;
      }
    </style>
  </defs>
  <circle class="cls-2" cx="30.3" cy="29.57" r="7.57"/>
  <path class="cls-1" d="m16.34,28.83c0-.48.02-.21.07-.68.71-7.04,6.66-12.53,13.89-12.53s13.34,5.65,13.91,12.84h4.58v-9.52l-18.64-10.85-18.57,10.91s-.22,9.99,0,9.77,4.77.06,4.77.06Z"/>
  <path class="cls-1" d="m44.04,32.02c-1.16,6.54-6.87,11.51-13.74,11.51s-12.62-4.99-13.75-11.56h-4.84l.13,8.22,18.32,10.72,18.45-10.72v-8.11l-4.55-.07Z"/>
  <polygon class="cls-2" points="28.17 26.6 28.17 32.4 33.53 29.66 28.17 26.6"/>
</svg>