<?xml version="1.0" encoding="UTF-8"?>
<svg id="Layer_1" data-name="Layer 1" xmlns="http://www.w3.org/2000/svg" viewBox="0 0 62.56 59.4">
  <defs>
    <style>
      .cls-1 {
        fill: #0fa448;
      }

      .cls-1, .cls-2 {
        stroke-width: 0px;
      }

      .cls-2 {
        fill: red;
      }

      .cls-3 {
        fill: none;
        stroke: #0fa448;
        stroke-miterlimit: 10;
      }
    </style>
  </defs>
  <path class="cls-3" d="m38.04,37.83l3.47-18.45c.11-.57-.27-1.12-.84-1.22l-17.96-3.13c-.56-.1-1.09.27-1.2.83l-4.72,24.69c-.11.57.27,1.11.83,1.22l13.86,2.53"/>
  <path class="cls-2" d="m41.65,46c-.03-2.28-1.43-4.32-3.57-5.13s-4.67-.13-6.12,1.64-1.68,4.32-.5,6.3,3.49,2.98,5.74,2.58c2.57-.46,4.41-2.8,4.45-5.38.01-.8-1.24-.81-1.25,0-.02,1.75-1.1,3.37-2.77,3.97s-3.6.08-4.74-1.31-1.24-3.33-.34-4.83,2.68-2.32,4.39-1.99c2,.38,3.43,2.13,3.46,4.16.01.8,1.26.81,1.25,0Z"/>
  <circle class="cls-2" cx="36.13" cy="46.21" r="1.23"/>
  <path class="cls-2" d="m15.32,45.75c4.73.89,9.47,1.78,14.2,2.68.68.13,1.37.26,2.05.39.79.15,1.12-1.06.33-1.21-4.73-.89-9.47-1.78-14.2-2.68-.68-.13-1.37-.26-2.05-.39-.79-.15-1.12,1.06-.33,1.21h0Z"/>
  <path class="cls-2" d="m40.13,42.46c1.88-8.73,3.85-17.45,5.64-26.2.2-.96.18-2.3.61-3.17.48-.97,3.03.12,3.88.32.78.18,1.12-1.02.33-1.21-1.12-.26-2.25-.61-3.38-.78-1.88-.28-2.06,1.48-2.32,2.85s-.58,2.85-.88,4.27l-3.92,18.23c-.38,1.78-.77,3.56-1.15,5.35-.17.78,1.04,1.12,1.21.33h0Z"/>
  <path class="cls-2" d="m52.46,17.48c-2.01-.5-4.03-.99-6.04-1.49l-.85-.21c-.78-.19-1.11,1.01-.33,1.21,2.01.5,4.03.99,6.04,1.49l.85.21c.78.19,1.11-1.01.33-1.21h0Z"/>
  <rect class="cls-1" x="23.87" y="20.21" width="2.98" height="1.96" transform="translate(4.34 -4.31) rotate(10.62)"/>
  <rect class="cls-1" x="29.23" y="21.15" width="2.98" height="1.96" transform="translate(4.6 -5.28) rotate(10.62)"/>
  <rect class="cls-1" x="34.43" y="22.17" width="2.98" height="1.96" transform="translate(4.88 -6.22) rotate(10.62)"/>
  <g>
    <path class="cls-1" d="m27.75,30.81h1.57v5.62c0,.19-.15.34-.34.34h-.89c-.19,0-.34-.15-.34-.34v-5.62h0Z" transform="translate(7.75 -5.25) rotate(12.15)"/>
    <path class="cls-1" d="m25.88,29.54l3.75-2.58c.27-.18.63-.11.79.14l2.07,3.65c.27.41-.12.97-.63.87-1.21-.23-4.61-.86-5.83-1.07-.5-.09-.6-.73-.16-1.01Z"/>
  </g>
</svg>