<?xml version="1.0" encoding="UTF-8"?>
<svg id="Layer_1" data-name="Layer 1" xmlns="http://www.w3.org/2000/svg" viewBox="0 0 62.56 59.4">
  <defs>
    <style>
      .cls-1 {
        fill: #0fa448;
        stroke-width: 0px;
      }

      .cls-2 {
        fill: none;
        stroke: red;
        stroke-miterlimit: 10;
      }
    </style>
  </defs>
  <path class="cls-1" d="m21.6,31.89c2,2.09,4,4.17,6,6.26.29.31.76.2.98-.13,3.16-4.73,6.33-9.46,9.49-14.18l1.36-2.03c.45-.67-.63-1.3-1.08-.63-3.16,4.73-6.33,9.46-9.49,14.18l-1.36,2.03.98-.13c-2-2.09-4-4.17-6-6.26-.56-.58-1.44.3-.88.88h0Z"/>
  <path class="cls-2" d="m26.67,9.49h7.34c.08,0,.15.07.15.15-.05.9-.04,5.62,5.5,5.85,2.06.09,3.51.11,4.53.11,1.31,0,2.36,1.06,2.36,2.37v18.97s-2.2,8.57-14.21,14.57c-1.16.58-2.54.54-3.65-.12-3.93-2.29-13.11-8.23-14.3-14.33v-19.97c0-1.31,1.06-2.37,2.37-2.37h5.55s4.75.25,4.23-5.07c0-.08.06-.16.14-.16Z"/>
</svg>