<?xml version="1.0" encoding="UTF-8"?>
<svg id="Layer_1" data-name="Layer 1" xmlns="http://www.w3.org/2000/svg" viewBox="0 0 62.56 59.4">
  <defs>
    <style>
      .cls-1 {
        fill: #0fa448;
      }

      .cls-1, .cls-2 {
        stroke: #0fa448;
        stroke-miterlimit: 10;
        stroke-width: .27px;
      }

      .cls-2 {
        fill: #ef262d;
      }
    </style>
  </defs>
  <path class="cls-2" d="m31.79,6.37c8.74,0,14.86,5.09,16.16,12.3.5,2.75.06,5.43-.79,8.05-1.18,3.64-3.01,6.96-5.07,10.16-2.45,3.8-5.21,7.37-8.22,10.75-.11.12-.21.25-.34.34-.34.23-.61.08-.84-.2-1.24-1.48-2.53-2.93-3.73-4.45-3.11-3.94-5.94-8.07-8.1-12.63-1.15-2.43-2.13-4.93-2.43-7.63-.68-6.09,1.59-10.87,6.62-14.3,2.44-1.66,5.19-2.39,6.72-2.4Zm1.4,40.39c.16-.17.27-.27.36-.38,2.93-3.36,5.64-6.89,8.02-10.67,1.94-3.08,3.65-6.28,4.72-9.78.84-2.74,1.11-5.51.34-8.31-2.46-9.02-13.13-13.12-20.96-7.95-4.69,3.09-6.78,7.55-6.18,13.17.29,2.74,1.32,5.27,2.51,7.73,2.25,4.63,5.17,8.81,8.38,12.81.91,1.13,1.85,2.23,2.82,3.39Z"/>
  <path class="cls-2" d="m35.94,52.18c0,1.5-1.21,2.71-2.72,2.71-1.51,0-2.74-1.22-2.74-2.74,0-1.52,1.22-2.74,2.74-2.74,1.52,0,2.72,1.23,2.71,2.76Zm-2.71,1.64c.92,0,1.67-.77,1.65-1.69-.02-.9-.76-1.63-1.67-1.63-.92,0-1.68.75-1.67,1.67,0,.92.76,1.66,1.69,1.65Z"/>
  <path class="cls-1" d="m42.21,21.53c.02,4.97-4.01,9.01-8.99,9.02-4.96,0-8.98-3.99-9.01-8.95-.03-4.98,3.97-9.03,8.94-9.05,5.02-.02,9.03,3.97,9.05,8.98Zm-9.03,7.94c4.37.02,7.95-3.5,7.97-7.86.03-4.4-3.51-7.99-7.87-8.01-4.39-.02-7.98,3.52-7.99,7.89-.02,4.4,3.5,7.96,7.9,7.98Z"/>
</svg>