<svg width="34" height="31" viewBox="0 0 34 31" fill="none" xmlns="http://www.w3.org/2000/svg">
<g clip-path="url(#clip0_174_42)">
<path d="M32.4263 7.68221C28.0451 5.49283 23.664 3.31314 19.2829 1.12377C18.768 0.862207 18.2143 0.494082 17.6606 0.319707C17.0291 0.125957 16.5046 0.523144 15.9509 0.804082L8.46114 4.54346L2.15657 7.68221C1.93314 7.79846 1.79714 8.06971 1.79714 8.31189V23.0369C1.79714 23.2791 1.93314 23.5503 2.15657 23.6666L15.3 30.225C15.8149 30.4866 16.3686 30.8547 16.9223 31.0291C17.5537 31.2228 18.0783 30.8256 18.632 30.5447L26.1217 26.8053C28.22 25.7591 30.3183 24.7128 32.4263 23.6666C32.6497 23.5503 32.7857 23.2791 32.7857 23.0369V8.31189C32.7857 7.37221 31.3286 7.37221 31.3286 8.31189V23.0369L31.688 22.4072C26.7629 24.8581 21.8474 27.3188 16.9223 29.7697H17.6606C12.7354 27.3188 7.82 24.8581 2.89486 22.4072L3.25428 23.0369V8.31189L2.89486 8.94158L17.6606 1.57908H16.9223C21.8474 4.03002 26.7629 6.49064 31.688 8.94158C32.5234 9.35814 33.2617 8.10846 32.4263 7.68221Z" fill="white"/>
<path d="M2.15657 8.94158C6.46971 11.0922 10.7829 13.2428 15.0863 15.3935C15.6983 15.6938 16.3103 16.0038 16.9223 16.3041C17.7577 16.7206 18.496 15.471 17.6606 15.0447C13.3474 12.8941 9.03428 10.7435 4.73086 8.59283C4.11886 8.29251 3.50686 7.98251 2.89486 7.6822C2.05943 7.26564 1.32114 8.51533 2.15657 8.94158Z" fill="white"/>
<path d="M18.02 30.3994V15.6744C18.02 14.7347 16.5629 14.7347 16.5629 15.6744V30.3994C16.5629 31.3391 18.02 31.3391 18.02 30.3994Z" fill="white"/>
<path d="M31.688 7.68221C27.3749 9.83283 23.0617 11.9835 18.7583 14.1341C18.1463 14.4344 17.5343 14.7444 16.9223 15.0447C16.0869 15.4613 16.8251 16.7206 17.6606 16.3041C21.9737 14.1535 26.2869 12.0028 30.5903 9.85221C31.2023 9.55189 31.8143 9.24189 32.4263 8.94158C33.2617 8.52502 32.5234 7.26564 31.688 7.68221Z" fill="white"/>
<path d="M24.3051 4.00093C19.992 6.15156 15.6789 8.30218 11.3754 10.4528C10.7634 10.7531 10.1514 11.0631 9.53942 11.3634C8.704 11.78 9.44228 13.0394 10.2777 12.6228C14.5909 10.4722 18.904 8.32156 23.2074 6.17093C23.8194 5.87062 24.4314 5.56062 25.0434 5.26031C25.8789 4.84374 25.1406 3.58437 24.3051 4.00093Z" fill="white"/>
</g>
<defs>
<clipPath id="clip0_174_42">
<rect width="34" height="31" fill="white"/>
</clipPath>
</defs>
</svg>
