<svg width="34" height="31" viewBox="0 0 34 31" fill="none" xmlns="http://www.w3.org/2000/svg">
<path d="M11.9777 15.2675C14.416 15.2966 16.6697 16.8078 17.5051 19.1231C18.3406 21.4385 17.612 24.1025 15.6886 25.6719C13.7651 27.2413 11.0549 27.3963 8.96628 26.1563C6.87771 24.9163 5.74114 22.4363 6.19771 20.0628C6.732 17.2922 9.16057 15.316 11.9777 15.2772C12.9103 15.2675 12.92 13.8144 11.9777 13.8241C8.92743 13.8628 6.19771 15.7325 5.10971 18.5806C4.02171 21.4288 4.92514 24.8291 7.30514 26.7666C9.68514 28.7041 13.0851 28.9947 15.7274 27.4253C18.3697 25.856 19.72 22.7753 19.176 19.7722C18.5543 16.3331 15.4263 13.8725 11.9777 13.8241C11.0354 13.8144 11.0354 15.2675 11.9777 15.2772V15.2675Z" fill="white"/>
<path d="M3.06972 25.575C3.96343 25.2069 4.85714 24.8484 5.75086 24.4803L6.13943 24.3253C6.324 24.2478 6.46972 24.1703 6.57657 23.9959C6.664 23.8409 6.70286 23.6084 6.65429 23.434C6.54743 23.095 6.13943 22.7753 5.76057 22.9303C4.86686 23.2984 3.97314 23.6569 3.07943 24.025L2.69086 24.18C2.50629 24.2575 2.36057 24.335 2.25372 24.5094C2.16629 24.6644 2.12743 24.8969 2.176 25.0712C2.28286 25.4103 2.69086 25.73 3.06972 25.575Z" fill="white"/>
<path d="M18.2046 19.3266C19.0983 18.9584 19.992 18.6 20.8857 18.2319L21.2743 18.0769C21.4589 17.9994 21.6046 17.9219 21.7114 17.7475C21.7989 17.5925 21.8377 17.36 21.7891 17.1856C21.6823 16.8466 21.2743 16.5269 20.8954 16.6819C20.0017 17.05 19.108 17.4084 18.2143 17.7766L17.8257 17.9316C17.6411 18.0091 17.4954 18.0866 17.3886 18.2609C17.3011 18.4159 17.2623 18.6484 17.3109 18.8228C17.4177 19.1619 17.8257 19.4816 18.2046 19.3266Z" fill="white"/>
<path d="M7.51886 12.2353C7.888 13.1265 8.24743 14.0178 8.61657 14.909L8.772 15.2965C8.84971 15.4806 8.92743 15.6259 9.10229 15.7325C9.25771 15.8197 9.49086 15.8584 9.66571 15.81C10.0057 15.7034 10.3263 15.2965 10.1709 14.9187C9.80171 14.0275 9.44229 13.1362 9.07314 12.245L8.91771 11.8575C8.84 11.6734 8.76229 11.5281 8.58743 11.4215C8.432 11.3344 8.19886 11.2956 8.024 11.344C7.684 11.4506 7.36343 11.8575 7.51886 12.2353Z" fill="white"/>
<path d="M13.7846 27.3381C14.1537 28.2294 14.5131 29.1206 14.8823 30.0119L15.0377 30.3994C15.1154 30.5834 15.1931 30.7288 15.368 30.8353C15.5234 30.9225 15.7566 30.9613 15.9314 30.9128C16.2714 30.8063 16.592 30.3994 16.4366 30.0216C16.0674 29.1303 15.708 28.2391 15.3389 27.3478L15.1834 26.9603C15.1057 26.7763 15.028 26.6309 14.8531 26.5244C14.6977 26.4372 14.4646 26.3984 14.2897 26.4469C13.9497 26.5534 13.6291 26.9603 13.7846 27.3381Z" fill="white"/>
<path d="M2.68114 18.0769C3.57486 18.445 4.46857 18.8034 5.36229 19.1715L5.75086 19.3265C5.916 19.3944 6.16857 19.3362 6.31429 19.249C6.46 19.1619 6.60571 18.9875 6.64457 18.8131C6.68343 18.629 6.67371 18.4159 6.56686 18.2512C6.46 18.0865 6.31429 17.9897 6.12971 17.9219C5.236 17.5537 4.34229 17.1953 3.44857 16.8272L3.06 16.6722C2.89486 16.6044 2.64229 16.6625 2.49657 16.7497C2.35086 16.8369 2.20514 17.0112 2.16629 17.1856C2.12743 17.3697 2.13714 17.5828 2.244 17.7475C2.35086 17.9122 2.49657 18.009 2.68114 18.0769Z" fill="white"/>
<path d="M17.816 24.3253C18.7097 24.6935 19.6034 25.0519 20.4971 25.42L20.8857 25.575C21.0509 25.6428 21.3034 25.5847 21.4491 25.4975C21.5949 25.4103 21.7406 25.236 21.7794 25.0616C21.8183 24.8775 21.8086 24.6644 21.7017 24.4997C21.5949 24.335 21.4491 24.2381 21.2646 24.1703C20.3709 23.8022 19.4771 23.4438 18.5834 23.0756L18.1949 22.9206C18.0297 22.8528 17.7771 22.911 17.6314 22.9981C17.4857 23.0853 17.34 23.2597 17.3011 23.4341C17.2623 23.6181 17.272 23.8313 17.3789 23.996C17.4857 24.1606 17.6314 24.2575 17.816 24.3253Z" fill="white"/>
<path d="M15.0377 11.8478C14.6686 12.739 14.3091 13.6303 13.94 14.5215L13.7846 14.909C13.7166 15.0737 13.7749 15.3256 13.8623 15.4709C13.9497 15.6162 14.1246 15.7615 14.2994 15.8003C14.484 15.839 14.6977 15.8294 14.8629 15.7228C15.028 15.6162 15.1251 15.4709 15.1931 15.2869C15.5623 14.3956 15.9217 13.5044 16.2909 12.6131L16.4463 12.2256C16.5143 12.0609 16.456 11.809 16.3686 11.6637C16.2811 11.5184 16.1063 11.3731 15.9314 11.3344C15.7469 11.2956 15.5331 11.3053 15.368 11.4119C15.2029 11.5184 15.1057 11.6637 15.0377 11.8478Z" fill="white"/>
<path d="M8.772 26.9506C8.40286 27.8419 8.04343 28.7331 7.67429 29.6244L7.51886 30.0119C7.45086 30.1766 7.50914 30.4285 7.59657 30.5738C7.684 30.7191 7.85886 30.8644 8.03372 30.9031C8.21829 30.9419 8.432 30.9322 8.59714 30.8256C8.76229 30.7191 8.85943 30.5738 8.92743 30.3897C9.29657 29.4985 9.656 28.6072 10.0251 27.716L10.1806 27.3285C10.2486 27.1638 10.1903 26.9119 10.1029 26.7666C10.0154 26.6213 9.84057 26.476 9.66571 26.4372C9.48114 26.3985 9.26743 26.4081 9.10229 26.5147C8.93714 26.6213 8.84 26.7666 8.772 26.9506Z" fill="white"/>
<path d="M24.0429 4.48532C25.9566 4.51438 27.7246 5.68657 28.3851 7.50782C29.0457 9.32907 28.4726 11.4409 26.9474 12.6809C25.4223 13.9209 23.3046 14.0275 21.6629 13.0491C20.0211 12.0706 19.1274 10.1331 19.4869 8.26345C19.9046 6.07407 21.8183 4.51438 24.0331 4.48532C24.9657 4.47563 24.9754 3.02251 24.0331 3.0322C21.4977 3.07095 19.2343 4.62095 18.3309 6.9847C17.4274 9.34845 18.1851 12.1481 20.1474 13.7466C22.1097 15.345 24.9366 15.6066 27.1417 14.2988C29.3469 12.9909 30.4543 10.4334 29.9977 7.94376C29.4829 5.09563 26.8891 3.06126 24.0331 3.02251C23.0909 3.01282 23.0909 4.46595 24.0331 4.47563L24.0429 4.48532Z" fill="white"/>
<path d="M18.8749 15.2772C19.4383 14.7153 20.0017 14.1534 20.5651 13.5916L20.808 13.3494C21.08 13.0781 21.0994 12.5841 20.808 12.3225C20.5166 12.0609 20.0697 12.0319 19.7783 12.3225C19.2149 12.8844 18.6514 13.4463 18.088 14.0081L17.8451 14.2503C17.5731 14.5216 17.5537 15.0156 17.8451 15.2772C18.1366 15.5388 18.5834 15.5678 18.8749 15.2772Z" fill="white"/>
<path d="M28.3171 5.86096C28.8514 5.32815 29.376 4.80502 29.9103 4.27221L30.1337 4.0494C30.4057 3.77815 30.4251 3.28408 30.1337 3.02252C29.8423 2.76096 29.3954 2.7319 29.104 3.02252C28.5697 3.55533 28.0451 4.07846 27.5109 4.61127L27.2874 4.83408C27.0154 5.10533 26.996 5.5994 27.2874 5.86096C27.5789 6.12252 28.0257 6.15158 28.3171 5.86096Z" fill="white"/>
<path d="M17.8354 4.03969C18.3989 4.5725 18.972 5.10532 19.5354 5.63813L19.7686 5.86094C20.0503 6.1225 20.5263 6.15157 20.7983 5.86094C21.0703 5.57032 21.0994 5.115 20.7983 4.83407C20.2349 4.30125 19.6617 3.76844 19.0983 3.23563L18.8651 3.01282C18.5834 2.75125 18.1074 2.72219 17.8354 3.01282C17.5634 3.30344 17.5343 3.75875 17.8354 4.03969Z" fill="white"/>
<path d="M27.2874 13.3494C27.8217 13.9113 28.356 14.4828 28.8903 15.0447L29.1137 15.2772C29.376 15.5581 29.8811 15.5581 30.1434 15.2772C30.4154 14.9769 30.4251 14.541 30.1434 14.2503C29.6091 13.6885 29.0749 13.1169 28.5406 12.555L28.3171 12.3225C28.0549 12.0416 27.5497 12.0416 27.2874 12.3225C27.0154 12.6228 27.0057 13.0588 27.2874 13.3494Z" fill="white"/>
<path d="M16.0771 9.81342H18.7C19.0789 9.81342 19.448 9.48404 19.4286 9.08685C19.4091 8.68967 19.108 8.36029 18.7 8.36029H16.0771C15.6983 8.36029 15.3291 8.68967 15.3486 9.08685C15.368 9.48404 15.6691 9.81342 16.0771 9.81342Z" fill="white"/>
<path d="M29.3954 9.81342H32.0183C32.3971 9.81342 32.7663 9.48404 32.7469 9.08685C32.7274 8.68967 32.4263 8.36029 32.0183 8.36029H29.3954C29.0166 8.36029 28.6474 8.68967 28.6669 9.08685C28.6863 9.48404 28.9874 9.81342 29.3954 9.81342Z" fill="white"/>
<path d="M23.3143 1.14313V3.75875C23.3143 4.13657 23.6446 4.50469 24.0429 4.48532C24.4411 4.46594 24.7714 4.16563 24.7714 3.75875V1.14313C24.7714 0.765315 24.4411 0.39719 24.0429 0.416565C23.6446 0.43594 23.3143 0.736253 23.3143 1.14313Z" fill="white"/>
<path d="M23.3143 14.4247V17.0403C23.3143 17.4181 23.6446 17.7862 24.0429 17.7669C24.4411 17.7475 24.7714 17.4472 24.7714 17.0403V14.4247C24.7714 14.0469 24.4411 13.6787 24.0429 13.6981C23.6446 13.7175 23.3143 14.0178 23.3143 14.4247Z" fill="white"/>
</svg>
