<svg width="32" height="29" viewBox="0 0 32 29" fill="none" xmlns="http://www.w3.org/2000/svg">
<path d="M3.01714 13.6753C1.95657 13.5847 1.97486 12.6694 2.55086 12.0622C2.78857 11.8175 3.072 11.6 3.328 11.3734L6.09829 8.90842L12.7451 2.99967C13.1749 2.61905 13.6046 2.11155 14.0891 1.80342C15.0309 1.21436 15.7349 2.1478 16.3657 2.71873L22.7657 8.40998L26.048 11.3281C26.816 12.0169 28.4709 13.6753 26.0206 13.6753C25.6457 13.6753 25.3349 13.9834 25.3349 14.355C25.3349 17.8531 25.4263 21.3603 25.3349 24.8584C25.2617 27.7675 22.2354 27.414 20.1417 27.414C18.8891 27.414 17.8743 26.97 17.8194 25.5472C17.7829 24.5412 17.8194 23.5262 17.8194 22.5203C17.8194 20.6353 17.9931 18.3787 15.4331 18.2519C14.4 18.1975 13.1291 18.1159 12.3154 18.8681C11.6754 19.4572 11.6114 20.2094 11.6114 21.0069V24.369C11.6114 25.4022 11.7851 26.6619 10.6697 27.2237C9.83772 27.6406 8.512 27.414 7.616 27.414C6.28114 27.414 4.87314 27.3234 4.27886 25.9006C4.00457 25.239 4.096 24.4415 4.096 23.7347V14.355C4.096 13.9834 3.78514 13.6753 3.41029 13.6753H3.02629C2.13943 13.6753 2.13943 15.0347 3.02629 15.0347H3.41029L2.72457 14.355C2.72457 17.9075 2.57829 21.4872 2.72457 25.0306C2.78857 26.5622 3.66629 27.8762 5.10172 28.4653C6.09829 28.8731 7.20457 28.7734 8.256 28.7734C9.39886 28.7734 10.5966 28.9094 11.6023 28.2478C12.608 27.5862 12.9646 26.535 12.9829 25.4022C13.0011 24.2694 12.9829 23.055 12.9829 21.8859C12.9829 20.9797 12.7086 19.7834 13.952 19.6203C14.9211 19.4934 16.2926 19.4572 16.4571 20.6172C16.6126 21.6503 16.4571 22.8194 16.4571 23.8615C16.4571 24.7406 16.3383 25.7556 16.6034 26.6165C17.0149 27.9669 18.2674 28.7372 19.6389 28.7825C21.8789 28.855 24.7406 29.1631 26.1303 27.0153C26.688 26.1544 26.7154 25.2209 26.7154 24.2422V14.3731L26.0297 15.0528C28.1051 15.0528 29.696 12.9503 27.9954 11.2465C27.328 10.5759 26.56 9.9778 25.856 9.34342L17.8377 2.21123C17.2069 1.64936 16.5577 0.897172 15.7897 0.507484C14.4549 -0.172203 13.4126 0.607172 12.4709 1.44998L4.81829 8.24686C3.75772 9.18936 2.66972 10.1137 1.62743 11.0834C0.0365724 12.5697 0.822858 14.8715 3.02629 15.0528C3.904 15.1253 3.904 13.7659 3.02629 13.6934L3.01714 13.6753Z" fill="white"/>
</svg>
