<?xml version="1.0" encoding="UTF-8"?>
<svg id="Layer_1" data-name="Layer 1" xmlns="http://www.w3.org/2000/svg" viewBox="0 0 62.56 59.4">
  <defs>
    <style>
      .cls-1 {
        fill: #0fa448;
      }

      .cls-1, .cls-2 {
        stroke-width: 0px;
      }

      .cls-2 {
        fill: red;
      }

      .cls-3 {
        stroke: red;
      }

      .cls-3, .cls-4 {
        fill: none;
        stroke-miterlimit: 10;
      }

      .cls-4 {
        stroke: #0fa448;
      }
    </style>
  </defs>
  <path class="cls-4" d="m53.38,34.89s-.28.49-6.33-.23l-4.55-12.15s6.67-.74,9.67.26"/>
  <path class="cls-4" d="m33.84,25.28s-1.17.72-2.72.61c0,0-2.16,3.88-4.72,2.33s.11-7.49,4.66-8.1,11.43,2.94,11.43,2.94l4,10.21-2.22,1.78-10.43-9.77Z"/>
  <path class="cls-1" d="m43.67,35.22s.02.08.02.12c0,.05.02.11.03.16-.02-.17,0,0,0,.07.01.16.02.32.02.49,0,.09,0,.18-.01.27-.01.16,0,.05-.03.22-.08.38-.17.67-.44.91-.35.32-.89.38-1.38.36l.44.18c-1.91-1.73-3.82-3.46-5.73-5.19l-.82-.74c-.59-.54-1.48.34-.88.88,1.51,1.37,3.02,2.74,4.53,4.11.65.59,1.29,1.2,1.96,1.77.45.39,1.23.27,1.77.1.62-.2,1.16-.62,1.46-1.2.44-.85.47-1.91.26-2.83-.18-.78-1.39-.45-1.21.33h0Z"/>
  <path class="cls-1" d="m41.29,38.27s-.09.22-.02.05c-.06.14-.13.29-.21.42-.2.35-.42.68-.75.93-.36.28-.8.41-1.25.33-.09-.02-.18-.05-.27-.07l-.06-.02c-.14-.06-.15-.06-.03.02.11,0,.09.09.05.03-.04-.06-.12-.11-.17-.16l-4.18-3.73c-.46-.42-.93-.83-1.39-1.25-.6-.53-1.49.35-.88.88,1.29,1.15,2.58,2.31,3.87,3.46.6.53,1.19,1.08,1.79,1.6.81.71,2.19.62,3.05.05.77-.52,1.35-1.35,1.65-2.23.27-.76-.94-1.09-1.21-.33h0Z"/>
  <path class="cls-1" d="m37.74,40.27c-.03.08.1-.17,0-.01-.06.1-.12.21-.18.31-.02.03-.04.06-.06.08-.05.08.06-.07,0,0-.06.07-.12.14-.18.2-.15.15-.2.19-.38.29-.38.21-.86.24-1.3.14-.35-.08-.5-.06-.71-.27l-3.57-3.49c-.41-.4-.82-.8-1.23-1.2-.58-.56-1.46.32-.88.88,1.13,1.1,2.25,2.2,3.38,3.3.5.49.99,1.01,1.51,1.48.38.34,1,.48,1.5.56.62.09,1.24.02,1.81-.25.69-.33,1.24-.98,1.51-1.7.28-.76-.93-1.08-1.21-.33h0Z"/>
  <path class="cls-1" d="m34.18,41.16c-2.06,2.14-5.45-.9-6.96-2.28-2.66-2.44-5.35-4.85-8.08-7.21l.16.61c.98-3.83,1.96-7.66,2.94-11.49l-.6.46c2.29.11,4.59.22,6.88.33.8.04.8-1.21,0-1.25-2.29-.11-4.59-.22-6.88-.33-.27-.01-.54.2-.6.46-.98,3.83-1.96,7.66-2.94,11.49-.05.2,0,.46.16.61,1.07.93,2.13,1.86,3.18,2.8,2.23,1.98,4.34,4.16,6.69,6,1.82,1.42,5.01,2.7,6.94.69.56-.58-.32-1.47-.88-.88h0Z"/>
  <path class="cls-4" d="m11.7,34.94s5.22.83,5.88.17,1.11-3,1.11-3"/>
  <path class="cls-4" d="m21.64,20.62s-5.14-2.48-6.94-1.37"/>
  <path class="cls-2" d="m12.5,35.37c-1.25-6.33,0-12.73,4.17-17.76,3.86-4.66,9.68-7.44,15.73-7.49,4.29-.03,8.41,1.28,11.95,3.69.67.45,1.29-.63.63-1.08-6.11-4.15-14.02-5.03-20.85-2.17-5.85,2.45-10.43,7.43-12.39,13.46-1.24,3.84-1.24,7.75-.46,11.68.16.79,1.36.45,1.21-.33h0Z"/>
  <path class="cls-2" d="m51.38,22.38c3.14,6.76,2.12,14.95-2.38,20.87-4.19,5.5-10.98,8.55-17.87,8.08-4.68-.32-9.09-2.28-12.55-5.43-.59-.54-1.48.34-.88.88,6.15,5.6,15.08,7.41,22.87,4.34,6.75-2.66,11.89-8.65,13.41-15.76.98-4.6.47-9.35-1.51-13.61-.34-.73-1.42-.09-1.08.63h0Z"/>
  <polygon class="cls-3" points="19.87 42.94 15.34 48.81 13.11 42.55 19.87 42.94"/>
  <polygon class="cls-3" points="47.11 10.83 49.47 17.87 43.03 16.24 47.11 10.83"/>
</svg>