<?xml version="1.0" encoding="UTF-8"?>
<svg id="Layer_1" data-name="Layer 1" xmlns="http://www.w3.org/2000/svg" viewBox="0 0 62.56 59.4">
  <defs>
    <style>
      .cls-1 {
        fill: #0fa448;
        stroke-width: 0px;
      }

      .cls-2 {
        stroke: red;
      }

      .cls-2, .cls-3 {
        fill: none;
        stroke-miterlimit: 10;
      }

      .cls-3 {
        stroke: #0fa448;
      }
    </style>
  </defs>
  <path class="cls-1" d="m46.25,32.32c1.26-6.42-.63-13.11-5.28-17.76s-10.82-6.44-17.01-5.42-11.47,5.04-14.19,10.56-2.64,12.44.38,17.96c3.4,6.22,10.01,10.04,17.06,10.11.8,0,.81-1.24,0-1.25-5.82-.05-11.35-2.81-14.77-7.56s-4.34-10.96-2.47-16.49c1.84-5.48,6.35-9.85,11.87-11.55,5.6-1.73,11.83-.61,16.47,2.97,5.51,4.24,8.06,11.31,6.73,18.1-.15.79,1.05,1.12,1.21.33h0Z"/>
  <path class="cls-1" d="m27.16,46.52c-3.96-.09-6.23-4.64-7.33-7.86-1.76-5.17-2.02-10.97-1.04-16.33.71-3.89,2.2-8.88,5.78-11.12,3.3-2.07,6.44.4,8.18,3.25,3.08,5.06,3.66,11.54,3.17,17.31-.07.8,1.18.8,1.25,0,.49-5.82-.14-12.22-3.03-17.4-1.75-3.14-5.03-6.26-8.9-4.87-4.19,1.5-6.25,6.64-7.24,10.59-1.45,5.77-1.38,12.14.3,17.86,1.2,4.1,3.89,9.72,8.87,9.83.8.02.8-1.23,0-1.25h0Z"/>
  <path class="cls-3" d="m13.29,15.25s14.34,11.04,27.84,0"/>
  <path class="cls-1" d="m8.38,28.94h37.65c.8,0,.81-1.25,0-1.25H8.38c-.8,0-.81,1.25,0,1.25h0Z"/>
  <path class="cls-1" d="m27.73,35.95c-1.78-.13-3.62.07-5.36.39-3.41.63-6.73,2.06-9.14,4.61-.55.58.33,1.47.88.88,3.35-3.54,8.84-4.97,13.62-4.63.8.06.8-1.19,0-1.25h0Z"/>
  <path class="cls-2" d="m35.75,48.56h-4.6c-.31,0-.56-.25-.56-.56v-12.53c0-.31.25-.56.56-.56h14.42c.31,0,.56.25.56.56v12.53c0,.31-.25.56-.56.56h-4.22"/>
  <circle class="cls-2" cx="38.45" cy="48.4" r="2.64"/>
  <circle class="cls-2" cx="51.52" cy="48.86" r="2.44"/>
  <path class="cls-2" d="m54.02,48.5h1.83c.36,0,.66-.3.66-.66v-3.32c0-.23-.06-.47-.16-.68l-2.4-4.7c-.24-.47-.72-.77-1.25-.77h-6.25"/>
  <line class="cls-2" x1="45.88" y1="48.5" x2="49.17" y2="48.5"/>
  <path class="cls-2" d="m53.43,44.03h-4.84c-.14,0-.25-.11-.25-.25v-2.83c0-.14.11-.25.25-.25h3.08c.14,0,.25.11.25.25l1.76,2.83c0,.14-.11.25-.25.25Z"/>
</svg>