<?xml version="1.0" encoding="UTF-8"?>
<svg id="Layer_1" data-name="Layer 1" xmlns="http://www.w3.org/2000/svg" viewBox="0 0 62.56 59.4">
  <defs>
    <style>
      .cls-1 {
        fill: #0fa448;
      }

      .cls-1, .cls-2 {
        stroke-width: 0px;
      }

      .cls-2 {
        fill: red;
      }
    </style>
  </defs>
  <path class="cls-1" d="m13.67,30.36v-12.54l-.34.58c5.77-2.52,11.54-5.05,17.31-7.57.84-.37,1.68-.73,2.52-1.1h-.68c6.33,2.77,12.67,5.53,19,8.3l-.34-.58c.03,6.53.05,13.06.08,19.58,0,.94,0,1.89.01,2.83l.34-.58c-6.39,2.86-12.79,5.72-19.18,8.58l1.02.58v-21.33c0-.87-1.35-.87-1.35,0v21.33c0,.56.57.79,1.02.58,6.39-2.86,12.79-5.72,19.18-8.58.21-.09.34-.37.34-.58-.03-6.53-.05-13.06-.08-19.58,0-.94,0-1.89-.01-2.83,0-.22-.12-.49-.34-.58-5.72-2.5-11.44-5-17.17-7.5-.59-.26-1.35-.77-1.99-.87s-1.54.52-2.1.76l-10.16,4.44c-2.7,1.18-5.4,2.36-8.09,3.54-.21.09-.34.37-.34.58v12.54c0,.87,1.35.87,1.35,0h0Z"/>
  <path class="cls-1" d="m12.65,18.4c5.81,2.54,11.62,5.07,17.42,7.61.71.31,1.46.75,2.21.96.66.19,1.3-.27,1.9-.55,3.28-1.53,6.56-3.06,9.85-4.59,2.71-1.26,5.42-2.53,8.14-3.79.79-.37.1-1.54-.68-1.17-6.39,2.98-12.79,5.96-19.18,8.95h.68c-5.73-2.5-11.46-5-17.19-7.51-.82-.36-1.64-.71-2.45-1.07s-1.48.82-.68,1.17h0Z"/>
  <path class="cls-1" d="m23.26,13.88c5.36,2.53,10.72,5.06,16.08,7.6l2.27,1.07c.78.37,1.47-.8.68-1.17-5.36-2.53-10.72-5.06-16.08-7.6l-2.27-1.07c-.78-.37-1.47.8-.68,1.17h0Z"/>
  <path class="cls-1" d="m46.16,30.64v3.61c0,.28-.02.55-.12.82-.08.21-.21.41-.36.57-.08.08-.16.16-.26.23-.06.04-.12.08-.18.11-.02.01-.26.13-.16.08.07-.03-.07.03-.09.04-.11.04-.22.09-.33.13l-1.03.42-1.76.71c-.34.14-.58.45-.47.83.09.32.49.61.83.47,1.08-.44,2.17-.87,3.26-1.31,1.22-.5,2.01-1.61,2.04-2.94.01-.59,0-1.18,0-1.78v-2c0-.87-1.35-.87-1.35,0h0Z"/>
  <path class="cls-2" d="m14.54,41.26c1.2,1.48,2.4,2.95,3.6,4.43.3.37.83.17,1.06-.14,2.16-2.89,4.31-5.77,6.47-8.66l.91-1.21c.52-.7-.65-1.37-1.17-.68-2.16,2.89-4.31,5.77-6.47,8.66-.3.4-.6.81-.91,1.21l1.06-.14c-1.2-1.48-2.4-2.95-3.6-4.43-.55-.68-1.5.29-.96.96h0Z"/>
  <path class="cls-2" d="m18.67,33.65c-6.05.08-10.6,5.91-8.96,11.81,1.61,5.8,8.55,8.57,13.72,5.48,2.82-1.68,4.5-4.73,4.54-7.99.01-.87-1.34-.87-1.35,0-.07,5.17-5.05,9.06-10.1,7.65s-7.32-7.31-4.67-11.73c1.44-2.41,4.04-3.83,6.82-3.87.87-.01.87-1.37,0-1.35h0Z"/>
</svg>