<?xml version="1.0" encoding="UTF-8"?>
<svg id="Layer_1" data-name="Layer 1" xmlns="http://www.w3.org/2000/svg" viewBox="0 0 62.56 59.4">
  <defs>
    <style>
      .cls-1 {
        fill: red;
        stroke-width: 0px;
      }

      .cls-2 {
        stroke: red;
      }

      .cls-2, .cls-3 {
        fill: none;
        stroke-miterlimit: 10;
      }

      .cls-3 {
        stroke: #0fa448;
      }
    </style>
  </defs>
  <path class="cls-1" d="m27.94,20.3v-10.98l-.31.54c.07-.03-.07.03-.08.03.06,0,.12-.05.17-.07.18-.07.36-.13.54-.19.64-.21,1.29-.37,1.96-.48,1.87-.32,3.84-.17,5.54.71l-.31-.54v11.06c0,.8,1.25.81,1.25,0v-11.06c0-.21-.12-.44-.31-.54-2.86-1.48-6.49-1.29-9.4,0-.19.09-.31.34-.31.54v10.98c0,.8,1.25.81,1.25,0h0Z"/>
  <path class="cls-2" d="m48.34,25.68c0-6.85-4.1-11.73-9.99-14.34"/>
  <path class="cls-2" d="m25.11,11.21c-6.05,2.53-10.3,7.51-10.3,14.48"/>
  <path class="cls-2" d="m51.91,29.49c0-2.35-1.9-4.25-4.25-4.25H15.57c-2.35,0-4.25,1.9-4.25,4.25v1.62h40.51l.09-1.62Z"/>
  <path class="cls-3" d="m23.74,33.23c0,4.37,3.54,7.91,7.91,7.91s7.91-3.54,7.91-7.91"/>
  <path class="cls-3" d="m46.17,36.45c-.62,1.58-1.35,2.91-2.33,4.2l.14.16,2.49,3.13c.61.77.48,1.9-.29,2.51l-2.53,2.01c-.77.61-1.9.48-2.51-.29l-2.15-2.9-.12-.16c-1.19.68-2.38,1.17-3.73,1.5v.14s0,4,0,4c0,.99-.8,1.79-1.79,1.79h-3.23c-.99,0-1.79-.8-1.79-1.79v-4h0c-1.29-.31-2.54-.89-3.69-1.53h0l-2.32,3.03c-.61.77-1.74.9-2.51.29l-2.53-2.01c-.77-.61-.9-1.74-.29-2.51l2.49-3.13h0c-.93-1.24-1.67-2.8-2.27-4.29"/>
  <path class="cls-3" d="m12.04,34.01l.1,1.23c.03.99.86,1.76,1.84,1.73l4-.13"/>
  <path class="cls-3" d="m51.52,34.01l-.1,1.23c-.03.99-.86,1.76-1.84,1.73l-4-.13"/>
</svg>