<?xml version="1.0" encoding="UTF-8"?>
<svg id="Layer_1" data-name="Layer 1" xmlns="http://www.w3.org/2000/svg" viewBox="0 0 62.56 59.4">
  <defs>
    <style>
      .cls-1 {
        fill: #0fa448;
      }

      .cls-1, .cls-2 {
        stroke-width: 0px;
      }

      .cls-2 {
        fill: red;
      }

      .cls-3 {
        stroke: red;
      }

      .cls-3, .cls-4 {
        fill: none;
        stroke-miterlimit: 10;
      }

      .cls-4 {
        stroke: #0fa448;
      }
    </style>
  </defs>
  <path class="cls-1" d="m8.51,16.37h5.87l-.6-.46c1.78,6.36,3.57,12.71,5.35,19.07.26.92.52,1.84.78,2.76.07.26.33.46.6.46h19.15c.28,0,.53-.19.6-.46.85-3.02,1.7-6.04,2.55-9.06.22-.78-.99-1.11-1.21-.33-.85,3.02-1.7,6.04-2.55,9.06l.6-.46h-19.15l.6.46c-1.78-6.36-3.57-12.71-5.35-19.07-.26-.92-.52-1.84-.78-2.76-.07-.26-.33-.46-.6-.46h-5.87c-.8,0-.81,1.25,0,1.25h0Z"/>
  <circle class="cls-4" cx="25.17" cy="43.26" r="2.87"/>
  <circle class="cls-4" cx="35.51" cy="43.26" r="2.87"/>
  <path class="cls-1" d="m37.23,22.4h-9.32c-.8,0-.81,1.25,0,1.25h9.32c.8,0,.81-1.25,0-1.25h0Z"/>
  <circle class="cls-3" cx="44.19" cy="22.45" r="6.32"/>
  <path class="cls-2" d="m43.38,19.26v7.6c0,.8,1.25.81,1.25,0v-7.6c0-.8-1.25-.81-1.25,0h0Z"/>
  <path class="cls-2" d="m40.2,23.68c2.22,0,4.44,0,6.65,0h.94c.8,0,.81-1.25,0-1.25-2.22,0-4.44,0-6.65,0h-.94c-.8,0-.81,1.25,0,1.25h0Z"/>
</svg>