<?xml version="1.0" encoding="UTF-8"?>
<svg id="Layer_1" data-name="Layer 1" xmlns="http://www.w3.org/2000/svg" viewBox="0 0 62.56 59.4">
  <defs>
    <style>
      .cls-1 {
        stroke: #0fa448;
      }

      .cls-1, .cls-2 {
        fill: none;
        stroke-miterlimit: 10;
      }

      .cls-2 {
        stroke: red;
        stroke-width: .92px;
      }
    </style>
  </defs>
  <rect class="cls-2" x="14.34" y="9.55" width="32.17" height="4.02" rx="2.01" ry="2.01"/>
  <path class="cls-2" d="m21.34,31.96h-4.99c-1.11,0-2.01-.9-2.01-2.01h0c0-1.11.9-2.01,2.01-2.01h5.12"/>
  <path class="cls-2" d="m39,27.94h5.5c1.11,0,2.01.9,2.01,2.01h0c0,1.11-.9,2.01-2.01,2.01h-5.5"/>
  <rect class="cls-2" x="14.34" y="46.51" width="32.17" height="4.02" rx="2.01" ry="2.01"/>
  <line class="cls-2" x1="16.83" y1="13.64" x2="16.83" y2="27.81"/>
  <line class="cls-2" x1="43.7" y1="13.64" x2="43.7" y2="27.81"/>
  <line class="cls-2" x1="16.83" y1="31.96" x2="16.83" y2="46.13"/>
  <line class="cls-2" x1="43.7" y1="31.96" x2="43.7" y2="46.13"/>
  <path class="cls-1" d="m39.43,29.98c0-.73-.09-1.44-.25-2.12-.96-4.05-4.6-7.07-8.94-7.07-5.08,0-9.19,4.12-9.19,9.19s4.12,9.19,9.19,9.19c4.44,0,8.15-3.15,9-7.34.12-.6.19-1.22.19-1.85Z"/>
  <path class="cls-1" d="m30.34,24.72c-.06-.24-1.73,2.71-3.11,5.36-1.06,2.04.51,5.49,2.98,5.57s4.64-3.11,3.32-5.45-3.19-5.49-3.19-5.49Z"/>
</svg>