<?xml version="1.0" encoding="UTF-8"?>
<svg id="Layer_1" data-name="Layer 1" xmlns="http://www.w3.org/2000/svg" viewBox="0 0 62.56 59.4">
  <defs>
    <style>
      .cls-1 {
        fill: #ef262d;
      }

      .cls-1, .cls-2 {
        stroke-width: 0px;
      }

      .cls-2 {
        fill: #019e3c;
      }
    </style>
  </defs>
  <g>
    <path class="cls-2" d="m31.8,54.77c4.84-7.94,9.68-15.88,14.51-23.81.68-1.12,1.37-2.24,2.05-3.36.08-.13.09-.32,0-.45-1.73-2.57-3.44-5.14-5.18-7.7-.39-.58-.61-.63-1.29-.63h-20.42c-.56,0-1.3-.16-1.73.24-.39.37-.68,1.02-.97,1.46l-1.81,2.71-2.66,3.98c-.09.13-.08.32,0,.45,4.89,7.93,9.77,15.86,14.66,23.78.68,1.11,1.37,2.22,2.05,3.32.3.49,1.08.04.77-.45-3.95-6.41-7.9-12.81-11.85-19.22l-3.16-5.12-1.07-1.74c-.12-.19-.36-.82-.57-.92-.45-.23,1.18.39-.05.33.06,0,.34-.51.37-.55l1.73-2.59,2.07-3.11c.14-.21,1.32-1.61,1.23-1.85-.03-.1-.36.04-.26.16.04.05.42,0,.49,0h8.63c4.16,0,8.33,0,12.49,0,.12,0,.41.06.52,0,.32-.16-.26.03-.21-.18-.07.27,1.02,1.52,1.18,1.76l3.82,5.68c.05.07.3.56.38.56.02,0,.17-.37,0-.31-.16.06-.45.74-.53.88l-2.48,4.08c-4.4,7.22-8.81,14.45-13.21,21.67l-.29.48c-.3.49.47.95.77.45Z"/>
    <path class="cls-2" d="m14.7,27.88h33.27c.58,0,.58-.9,0-.9H14.7c-.58,0-.58.9,0,.9h0Z"/>
    <path class="cls-2" d="m26.13,27.73c1.62-2.43,3.24-4.85,4.86-7.28l.69-1.04h-.77c1.56,2.41,3.12,4.81,4.68,7.22l.67,1.03c.31.48,1.09.03.77-.45-1.56-2.41-3.12-4.81-4.68-7.22l-.67-1.03c-.19-.29-.58-.29-.77,0-1.62,2.43-3.24,4.85-4.86,7.28l-.69,1.04c-.32.48.45.93.77.45h0Z"/>
    <path class="cls-2" d="m42.14,19.03c-1.63,2.26-3.25,4.52-4.88,6.78-.35.49-.85,1-1.06,1.57s-.24,1.26-.36,1.85c-1.24,6.43-2.48,12.86-3.73,19.29-.38,1.97-.76,3.93-1.14,5.9h.86c-1.05-4.99-2.09-9.99-3.14-14.98l-1.94-9.27c-.26-1.23-.34-2.46-1.04-3.5l-5.18-7.64c-.32-.47-1.1-.03-.77.45l4.61,6.8c.29.42.62.84.87,1.28.16.28,0-.06.09.2.21.65.29,1.38.43,2.05,1.33,6.36,2.66,12.71,4,19.07l1.21,5.78c.09.42.78.43.86,0,.95-4.93,1.9-9.85,2.85-14.78.6-3.13,1.21-6.26,1.81-9.38.16-.85.35-1.69.49-2.54.08-.51.14-.44.54-1,1.79-2.49,3.58-4.98,5.38-7.47.34-.47-.44-.92-.77-.45h0Z"/>
  </g>
  <path class="cls-1" d="m50.67,28.08h6.49c.8,0,.81-1.25,0-1.25h-6.49c-.8,0-.81,1.25,0,1.25h0Z"/>
  <path class="cls-1" d="m5.13,28.08h6.49c.8,0,.81-1.25,0-1.25h-6.49c-.8,0-.81,1.25,0,1.25h0Z"/>
  <path class="cls-1" d="m10.81,14.01c1.58,1.03,3.16,2.07,4.75,3.1l.69.45c.68.44,1.3-.64.63-1.08-1.58-1.03-3.16-2.07-4.75-3.1l-.69-.45c-.68-.44-1.3.64-.63,1.08h0Z"/>
  <path class="cls-1" d="m45.42,17.06c1.28-1.4,2.55-2.8,3.83-4.19.18-.2.36-.4.54-.6.23-.25.25-.64,0-.88-.23-.23-.66-.25-.88,0-1.28,1.4-2.55,2.8-3.83,4.19-.18.2-.36.4-.54.6-.23.25-.25.64,0,.88.23.23.66.25.88,0h0Z"/>
  <path class="cls-1" d="m32.15,13.52v-6.49c0-.8-1.25-.81-1.25,0v6.49c0,.8,1.25.81,1.25,0h0Z"/>
</svg>