<svg width="24" height="20" viewBox="0 0 24 20" fill="none" xmlns="http://www.w3.org/2000/svg">
<path d="M1.51541 10.1125C1.57027 14.1063 4.27199 17.7188 8.39313 19.1313C12.5143 20.5438 17.3966 19.3563 20.2011 16.2375C23.0057 13.1188 23.4034 8.63751 21.12 5.17501C18.8366 1.71251 14.3726 -0.0749902 10.0457 0.67501C5.10856 1.52501 1.57027 5.58126 1.51541 10.1125C1.50856 10.7188 2.53713 10.7188 2.54399 10.1125C2.59199 6.47501 5.08799 3.15001 8.87999 1.93126C12.672 0.71251 16.9508 1.81876 19.4743 4.65626C21.9977 7.49376 22.2651 11.575 20.1737 14.6688C18.0823 17.7625 13.9817 19.3625 10.0937 18.6063C5.70513 17.75 2.59199 14.175 2.54399 10.1125C2.53713 9.51251 1.50856 9.50626 1.51541 10.1125Z" fill="white"/>
<path d="M12.624 1.24376C14.6537 3.70001 15.5657 7.09376 15.5657 10.1125C15.5657 13.1313 14.6537 16.525 12.624 18.9813C12.2263 19.4625 13.1177 19.9313 13.5154 19.4563C15.648 16.8813 16.5943 13.2813 16.5943 10.1188C16.5943 6.95626 15.6411 3.35626 13.5154 0.781259C13.1246 0.306259 12.2263 0.768759 12.624 1.25626V1.24376Z" fill="white"/>
<path d="M11.5063 18.9813C9.47658 16.525 8.56458 13.1313 8.56458 10.1125C8.56458 7.09376 9.47658 3.70001 11.5063 1.24376C11.904 0.762505 11.0126 0.293755 10.6149 0.768755C8.4823 3.34376 7.53601 6.94376 7.53601 10.1063C7.53601 13.2688 8.48915 16.8688 10.6149 19.4438C11.0057 19.9188 11.904 19.4563 11.5063 18.9688V18.9813Z" fill="white"/>
<path d="M2.66057 13.7812H21.4697C22.1349 13.7812 22.1349 12.8438 21.4697 12.8438H2.66057C1.99543 12.8438 1.99543 13.7812 2.66057 13.7812Z" fill="white"/>
<path d="M2.66057 7.38126H21.4697C22.1349 7.38126 22.1349 6.44376 21.4697 6.44376H2.66057C1.99543 6.44376 1.99543 7.38126 2.66057 7.38126Z" fill="white"/>
</svg>
