<svg width="35" height="32" viewBox="0 0 35 32" fill="none" xmlns="http://www.w3.org/2000/svg">
<path d="M2.28 14.29H14.62C15.03 14.29 15.37 13.95 15.37 13.54V1.20001C15.37 0.790012 15.03 0.450012 14.62 0.450012H2.28C1.87 0.450012 1.53 0.790012 1.53 1.20001V13.54C1.53 14.51 3.03 14.51 3.03 13.54V1.20001L2.28 1.95001H14.62L13.87 1.20001V13.54L14.62 12.79H2.28C1.31 12.79 1.31 14.29 2.28 14.29Z" fill="white"/>
<path d="M2.28 30.15H14.62C15.03 30.15 15.37 29.81 15.37 29.4V17.06C15.37 16.65 15.03 16.31 14.62 16.31H2.28C1.87 16.31 1.53 16.65 1.53 17.06V29.4C1.53 30.37 3.03 30.37 3.03 29.4V17.06L2.28 17.81H14.62L13.87 17.06V29.4L14.62 28.65H2.28C1.31 28.65 1.31 30.15 2.28 30.15Z" fill="white"/>
<path d="M30.48 0.450012H18.14C17.73 0.450012 17.39 0.790012 17.39 1.20001V13.54C17.39 13.95 17.73 14.29 18.14 14.29H30.48C30.89 14.29 31.23 13.95 31.23 13.54V1.20001C31.23 0.230012 29.73 0.230012 29.73 1.20001V13.54L30.48 12.79H18.14L18.89 13.54V1.20001L18.14 1.95001H30.48C31.45 1.95001 31.45 0.450012 30.48 0.450012Z" fill="white"/>
<path d="M15.73 17.44C18.3 21.55 20.87 25.66 23.43 29.77C23.8 30.36 24.17 30.95 24.54 31.54C24.84 32.02 25.53 32.02 25.84 31.54C28.41 27.43 30.98 23.32 33.54 19.21C33.91 18.62 34.28 18.03 34.65 17.44C34.95 16.95 34.56 16.31 34 16.31H16.38C15.41 16.31 15.41 17.81 16.38 17.81H34L33.35 16.68C30.78 20.79 28.21 24.9 25.65 29.01C25.28 29.6 24.91 30.19 24.54 30.78H25.84C23.27 26.67 20.7 22.56 18.14 18.45C17.77 17.86 17.4 17.27 17.03 16.68C16.52 15.86 15.22 16.62 15.73 17.44Z" fill="white"/>
</svg>
