<svg width="28" height="26" viewBox="0 0 28 26" fill="none" xmlns="http://www.w3.org/2000/svg">
<g clip-path="url(#clip0_174_61)">
<path d="M24.112 24.8787H5.88C5.144 24.8787 4.36 24.9519 3.624 24.8706C1.72 24.6431 1.408 22.945 1.408 21.3769V5.57375C1.408 4.50125 1.248 3.2825 1.944 2.38062C2.776 1.30812 3.968 1.41375 5.144 1.41375H21.112C22.08 1.41375 23.048 1.38125 24.016 1.41375C25.672 1.47062 26.6 2.68125 26.608 4.28187C26.624 7.54 26.608 10.7981 26.608 14.0562C26.608 16.8025 26.736 19.5894 26.608 22.3356C26.544 23.7575 25.536 24.8137 24.12 24.8706C23.352 24.9031 23.344 26.1219 24.12 26.0894C26.28 25.9919 27.776 24.3344 27.808 22.165C27.824 20.8894 27.808 19.6137 27.808 18.3381V6.09375C27.808 5.1025 27.936 3.95687 27.688 2.98187C27.216 1.12125 25.544 0.203121 23.768 0.194996C20.384 0.178746 17 0.194996 13.616 0.194996C10.432 0.194996 7.248 0.154371 4.064 0.194996C1.92 0.227496 0.279998 1.755 0.199998 3.94062C0.167998 4.8425 0.199998 5.76062 0.199998 6.67062V19.0125C0.199998 20.1094 0.167998 21.2144 0.199998 22.3112C0.271998 24.44 1.824 26.0325 3.928 26.1056C10.432 26.3087 16.976 26.1056 23.488 26.1056H24.112C24.888 26.1056 24.888 24.8869 24.112 24.8869V24.8787Z" fill="white"/>
<path d="M5.472 8.69373H15.44C16.216 8.69373 16.216 7.47498 15.44 7.47498H5.472C4.696 7.47498 4.696 8.69373 5.472 8.69373Z" fill="white"/>
<path d="M5.472 13.7556H21.672C22.448 13.7556 22.448 12.5369 21.672 12.5369H5.472C4.696 12.5369 4.696 13.7556 5.472 13.7556Z" fill="white"/>
<path d="M5.472 18.8175H15.44C16.216 18.8175 16.216 17.5988 15.44 17.5988H5.472C4.696 17.5988 4.696 18.8175 5.472 18.8175Z" fill="white"/>
</g>
<defs>
<clipPath id="clip0_174_61">
<rect width="28" height="26" fill="white"/>
</clipPath>
</defs>
</svg>
