<svg width="23" height="20" viewBox="0 0 23 20" fill="none" xmlns="http://www.w3.org/2000/svg">
<path d="M12.9786 0.818756C8.54286 0.818756 4.92857 4.25001 4.92857 8.47501C4.92857 10.425 5.69743 12.1938 6.95914 13.55L1.82686 18.425C1.63629 18.6063 1.63629 18.8938 1.82686 19.075C1.91886 19.1625 2.04372 19.2125 2.16857 19.2125C2.29343 19.2125 2.41829 19.1688 2.51029 19.075L7.636 14.2C9.05543 15.4 10.9283 16.1313 12.972 16.1313C17.4077 16.1313 21.022 12.7 21.022 8.47501C21.022 4.25001 17.4077 0.818756 12.972 0.818756H12.9786ZM12.9786 1.74376C16.882 1.74376 20.056 4.76251 20.056 8.47501C20.056 12.1875 16.882 15.2063 12.9786 15.2063C9.07514 15.2063 5.90114 12.1875 5.90114 8.47501C5.90114 4.76251 9.07514 1.74376 12.9786 1.74376Z" fill="white"/>
</svg>
