<?xml version="1.0" encoding="UTF-8"?>
<svg id="Layer_1" data-name="Layer 1" xmlns="http://www.w3.org/2000/svg" viewBox="0 0 62.56 59.4">
  <defs>
    <style>
      .cls-1 {
        fill: none;
        stroke: #019e3c;
        stroke-miterlimit: 10;
      }

      .cls-2 {
        fill: #f90606;
        stroke-width: 0px;
      }
    </style>
  </defs>
  <circle class="cls-1" cx="31.22" cy="24.98" r="17.11"/>
  <polyline class="cls-1" points="20.92 38.68 20.92 55.87 30.97 49.4 41.26 55.7 41.26 38.77"/>
  <path class="cls-2" d="m31.04,11.98c1.01,3.1,2.01,6.2,3.02,9.3.06.19.23.33.43.33h9.78l-.23-.84c-2.64,1.92-5.27,3.83-7.91,5.75-.16.11-.27.31-.21.51,1.01,3.1,2.01,6.2,3.02,9.3l.66-.51c-2.64-1.92-5.27-3.83-7.91-5.75-.12-.09-.34-.09-.45,0-2.64,1.92-5.27,3.83-7.91,5.75l.66.51c1.01-3.1,2.01-6.2,3.02-9.3.07-.2-.05-.39-.21-.51-2.64-1.92-5.27-3.83-7.91-5.75l-.23.84h9.78c.2,0,.37-.14.43-.33,1.01-3.1,2.01-6.2,3.02-9.3.18-.55-.69-.79-.86-.24-1.01,3.1-2.01,6.2-3.02,9.3l.43-.33h-9.78c-.48,0-.57.59-.23.84,2.64,1.92,5.27,3.83,7.91,5.75l-.21-.51c-1.01,3.1-2.01,6.2-3.02,9.3-.11.35.34.74.66.51l3.85-2.8,2.78-2.02c.29-.21.61-.4.88-.64.17-.15.6-.28.17-.28s0,.14.17.28c.27.24.59.43.88.64l2.68,1.95,3.96,2.87c.32.23.77-.15.66-.51-1.01-3.1-2.01-6.2-3.02-9.3l-.21.51c2.64-1.92,5.27-3.83,7.91-5.75.34-.25.25-.84-.23-.84h-9.78l.43.33c-1.01-3.1-2.01-6.2-3.02-9.3-.18-.55-1.04-.31-.86.24Z"/>
</svg>