<?xml version="1.0" encoding="UTF-8"?>
<svg id="Layer_1" data-name="Layer 1" xmlns="http://www.w3.org/2000/svg" viewBox="0 0 62.56 59.4">
  <defs>
    <style>
      .cls-1 {
        fill: #ef262d;
      }

      .cls-1, .cls-2, .cls-3, .cls-4 {
        stroke-width: 0px;
      }

      .cls-2 {
        fill: #0fa447;
      }

      .cls-3 {
        fill: #0fa448;
      }

      .cls-4 {
        fill: #0ea447;
      }
    </style>
  </defs>
  <path class="cls-4" d="m8.34,30.46c.45,9.47,4.75,16.59,13.42,20.46,8.76,3.91,17.15,2.53,24.31-3.83,6.49-5.76,8.57-13.23,7.01-21.74-.06-.34.17-.73.26-1.1.23.31.6.59.68.93,3.16,13.41-6.44,27.02-20.12,28.56-12.7,1.43-23.75-6.7-26.19-19.26-2.42-12.45,6.34-25.16,18.82-27.33,3.92-.68,7.77-.53,11.58.64.2.06.45.07.57.2.2.21.31.5.47.75-.26.06-.54.22-.78.17-1.4-.3-2.78-.74-4.19-.97-12.79-2.05-25.17,8.05-25.75,20.97-.02.51-.05,1.03-.07,1.54Z"/>
  <path class="cls-2" d="m15.77,30.38c0,7.73,6.05,14.47,13.54,15.1,8.24.69,15.37-4.61,16.58-12.52.3-1.93-.02-3.95-.02-5.92,0-.33.21-.66.32-1,.21.26.53.49.6.78,1.9,8.65-3.51,17.83-12.93,19.46-8.76,1.51-16.64-3.76-18.71-12.34-2.15-8.9,4-18.12,13.04-19.56,2.59-.41,5.12-.27,7.63.46.26.08.55.17.72.35.12.13.12.57.04.62-.19.11-.49.1-.73.08-1.93-.22-3.86-.73-5.78-.65-8.05.32-14.31,7.03-14.3,15.14Z"/>
  <path class="cls-1" d="m44.34,23.45c-1.63-.2-2.96-.32-4.28-.53-.62-.1-1.01.06-1.44.49-2.43,2.47-4.89,4.91-7.34,7.36-.17.17-.32.4-.52.49-.21.09-.48.03-.72.04,0-.24-.09-.53.02-.71.17-.29.46-.5.7-.75,2.38-2.38,4.77-4.74,7.11-7.15.3-.31.47-.87.46-1.31,0-.89-.06-1.8-.3-2.65-.33-1.17.13-1.91.94-2.68,2.46-2.39,4.86-4.84,7.3-7.25.24-.23.61-.32.93-.48.13.3.32.59.37.91.17,1.12.24,2.25.46,3.36.06.33.43.74.75.84,1.14.37,2.32.61,3.47.92.94.25,1.05.54.39,1.21-2.41,2.44-4.82,4.88-7.26,7.29-.34.33-.83.5-1.04.62Zm2.3-13.61c-1.85,1.86-3.44,3.68-5.26,5.21-1.93,1.62-2.9,3.35-2.1,5.9.21.66.34,1,1.06,1.05,1.13.08,2.25.26,3.37.35.28.02.67,0,.84-.16,2.32-2.28,4.61-4.58,7.02-7-1.23-.3-2.31-.6-3.4-.83-.68-.14-1.07-.41-1.11-1.19-.05-1.02-.25-2.03-.42-3.32Z"/>
  <path class="cls-3" d="m21.85,30.65c0-6.28,5.58-10.63,11.38-9.17.13.03.3.04.39.12.26.22.48.47.72.71-.32.09-.64.26-.96.26-1.32-.03-2.67-.34-3.95-.14-3.97.62-6.81,4.3-6.55,8.21.29,4.29,3.56,7.63,7.69,7.83,4.01.2,7.69-2.67,8.34-6.6.17-.99,0-2.04.05-3.05.02-.35.2-.69.31-1.04.22.28.59.53.65.83.92,5.1-2.45,9.96-7.37,10.7-5.34.8-9.97-2.64-10.66-7.94-.04-.34-.04-.68-.04-.73Z"/>
</svg>