<?xml version="1.0" encoding="UTF-8"?>
<svg id="Layer_1" data-name="Layer 1" xmlns="http://www.w3.org/2000/svg" viewBox="0 0 62.56 59.4">
  <defs>
    <style>
      .cls-1 {
        fill: #0fa447;
      }

      .cls-1, .cls-2 {
        stroke-width: 0px;
      }

      .cls-2 {
        fill: #ee1e25;
      }
    </style>
  </defs>
  <path class="cls-1" d="m30.85,55.68c-13.9,0-24.9-11.09-24.92-25.08-.02-13.62,11.46-24.94,25.4-24.74,13.38.2,24.4,11.35,24.39,25.05-.01,13.68-11.15,24.77-24.87,24.77Zm-.07-1.02c13.08,0,23.92-10.66,23.93-23.53,0-13.5-10.67-24.32-23.95-24.26-13.1.05-23.86,10.85-23.85,23.93,0,13.1,10.77,23.86,23.87,23.86Z"/>
  <path class="cls-1" d="m30.79,47.98c-9.52,0-17.22-7.71-17.2-17.23.01-9.48,7.78-17.22,17.27-17.2,9.65.02,17.17,7.75,17.16,17.63-.01,9.21-7.79,16.8-17.23,16.8Zm16.13-17.2c-.02-8.95-7.21-16.07-16.22-16.06-8.91,0-15.96,7.22-15.94,16.31.02,8.69,7.27,15.84,16.07,15.86,8.85.01,16.11-7.25,16.09-16.1Z"/>
  <path class="cls-2" d="m32.76,23.92c-1.57,1.63-1.66,3.3-.32,4.43,1.39,1.17,3.01.67,4.37-1.34,1.85,2.39,1.55,6.24-.67,8.63-2.46,2.64-6.4,3.1-9.35,1.09-2.91-1.98-3.94-5.75-2.46-8.99,1.44-3.15,4.99-4.78,8.43-3.81Z"/>
</svg>